
<svg xmlns="http://www.w3.org/2000/svg" width="72.3" height="77.478" viewBox="0 0 72.3 77.478"><defs><style>.a{fill:#fff;}.b,.c{stroke:none;}.c{fill:#000;}</style></defs><g class="a" transform="translate(0 -11.523)"><path class="b" d="M 36.47871780395508 87.00011444091797 C 31.84362411499023 87.00011444091797 27.34655380249023 86.016845703125 23.11242485046387 84.07760620117188 C 19.01043701171875 82.19889068603516 15.32340145111084 79.50601959228516 12.15371894836426 76.07380676269531 C 8.973589897155762 72.63028717041016 6.475754261016846 68.61769104003906 4.729613304138184 64.14746856689453 C 2.918378114700317 59.51056289672852 2.000001430511475 54.58244323730469 2.000001430511475 49.50000762939453 C 2.000001430511475 45.29392623901367 2.635272026062012 41.16548919677734 3.888178110122681 37.22935104370117 C 5.097625255584717 33.42974853515625 6.858213424682617 29.87910270690918 9.121060371398926 26.6760425567627 C 11.35499000549316 23.51389122009277 14.02129554748535 20.77010154724121 17.04593086242676 18.52086639404297 C 18.36622047424316 17.53905487060547 19.74057579040527 16.66227531433105 21.16198539733887 15.89409160614014 C 18.26202392578125 21.35337829589844 16.70698928833008 27.59271621704102 16.70698928833008 34.00020980834961 C 16.70698928833008 53.85078430175781 31.45111846923828 70.00041198730469 49.5741081237793 70.00041198730469 C 56.38893127441406 70.00041198730469 63.00580596923828 67.66056060791016 68.50371551513672 63.42566680908203 C 67.83075714111328 65.25396728515625 67.0230712890625 67.02603912353516 66.08438873291016 68.73123168945313 C 64.07175445556641 72.38742828369141 61.52000045776367 75.62525177001953 58.50002670288086 78.35479736328125 C 55.46649551391602 81.09658813476563 52.06063842773438 83.23387908935547 48.37704849243164 84.70731353759766 C 44.57356643676758 86.22869873046875 40.57040023803711 87.00011444091797 36.47871780395508 87.00011444091797 Z"/><path class="c" d="M 36.47872161865234 85.00011444091797 C 40.31482696533203 85.00011444091797 44.06809616088867 84.27683258056641 47.63425445556641 82.85036468505859 C 51.09721374511719 81.46517944335938 54.30177307128906 79.45343017578125 57.15896224975586 76.87101745605469 C 59.75944519042969 74.52064514160156 61.99393081665039 71.76921844482422 63.81144714355469 68.68157196044922 C 59.3743782043457 70.84403228759766 54.52462768554688 72.00040435791016 49.5741081237793 72.00040435791016 C 30.34830856323242 72.00040435791016 14.70698833465576 54.95359420776367 14.70698833465576 34.00020599365234 C 14.70698833465576 29.65374755859375 15.38850879669189 25.37952995300293 16.69238090515137 21.34967613220215 C 14.46815872192383 23.21979713439941 12.4763126373291 25.39286231994629 10.75453472137451 27.83004570007324 C 8.610135078430176 30.86545944213867 6.941148281097412 34.23193740844727 5.793961524963379 37.83596420288086 C 4.603574752807617 41.57572555541992 4.000001430511475 45.50008773803711 4.000001430511475 49.50000762939453 C 4.000001430511475 54.33245849609375 4.872254848480225 59.01575088500977 6.592535018920898 63.41976547241211 C 8.247481346130371 67.65655517578125 10.61288166046143 71.45745849609375 13.62298774719238 74.71689605712891 C 16.61222839355469 77.95371246337891 20.08512115478516 80.49131011962891 23.94524192810059 82.25924682617188 C 27.91618728637695 84.07794952392578 32.1330680847168 85.00011444091797 36.47872161865234 85.00011444091797 M 36.47872161865234 89.00011444091797 C 31.55416107177734 89.00011444091797 26.77689552307129 87.95572662353516 22.27961540222168 85.89596557617188 C 17.93577575683594 83.90648651123047 14.03458786010742 81.058349609375 10.68441486358643 77.43070983886719 C 7.334268093109131 73.80307006835938 4.704001426696777 69.57876586914063 2.866694927215576 64.87513732910156 C 0.9644948840141296 60.00539398193359 1.525878928987368e-06 54.83244705200195 1.525878928987368e-06 49.50000762939453 C 1.525878928987368e-06 45.08780670166016 0.6669881939888 40.7552604675293 1.982388138771057 36.62272644042969 C 3.25408148765564 32.62756729125977 5.106281757354736 28.89275169372559 7.487561702728271 25.52204513549805 C 9.84364128112793 22.1870059967041 12.65800189971924 19.29151344299316 15.85246849060059 16.91599273681641 C 19.09420204162598 14.50532627105713 22.64764213562012 12.69071292877197 26.41410827636719 11.52255249023438 C 21.44445419311523 17.73011207580566 18.70698738098145 25.71224594116211 18.70698738098145 34.00020599365234 C 18.70698738098145 52.74797821044922 32.55392074584961 68.00040435791016 49.5741081237793 68.00040435791016 C 58.18430709838867 68.00040435791016 66.46757507324219 63.99399185180664 72.30000305175781 57.00847244262695 C 71.50237274169922 61.49699401855469 70.00008392333984 65.76529693603516 67.83647155761719 69.69570922851563 C 65.71638488769531 73.54708862304688 63.02634811401367 76.95963287353516 59.84107971191406 79.83855438232422 C 56.63125610351563 82.73970031738281 53.02409362792969 85.00255584716797 49.11982727050781 86.56427001953125 C 45.07909393310547 88.18056488037109 40.82601547241211 89.00011444091797 36.47872161865234 89.00011444091797 Z"/></g></svg>
